<?xml version="1.0" encoding="utf-8"?>
<!-- Generator: Adobe Illustrator 27.6.1, SVG Export Plug-In . SVG Version: 6.00 Build 0)  -->
<svg version="1.1" id="Layer_4" xmlns="http://www.w3.org/2000/svg" xmlns:xlink="http://www.w3.org/1999/xlink" x="0px" y="0px"
	 viewBox="0 0 321.2 359.1" style="enable-background:new 0 0 321.2 359.1;" xml:space="preserve">
<style type="text/css">
	.st0{fill:#FFFFFF;}
	.st1{fill:#213465;}
	.st2{fill:#F9A76B;}
	.st3{fill:#F7934B;}
</style>
<g id="Layer_5">
	<g>
		<g>
			<g>
				<g>
					<polygon class="st0" points="103.5,20.6 219.5,1.4 219.5,208.9 103.5,215.7 					"/>
				</g>
				<g>
					<polygon class="st0" points="3.5,202 3.5,60.6 100.6,46 100.6,209.1 					"/>
				</g>
				<g>
					<polygon class="st0" points="320.7,209 222.7,202.9 222.7,43.7 320.7,58.7 320.7,97.5 318.7,97.5 318.7,60.4 224.7,46 
						224.7,201.1 318.7,206.9 318.7,97.5 320.7,97.5 320.7,100.6 					"/>
				</g>
			</g>
			<path class="st0" d="M299.1,193c-2.1,0-4-0.7-6-2c-2.4-1.7-3-2.6-2.8-4.1c0-0.3,0.1-0.6-0.5-1.6c-0.5-0.8-0.8-1.4-1-1.9
				c-0.5-1.2-0.6-1.4-6.8-2.5c-0.4-0.1-2-0.4-2-0.4v-1.5h-6.5v-3.1h-3l-1.5-66.9l1.8-3.4V104h-1.3v-9.7h-0.3V81.6h5.3v-4.5h2.9
				c-0.1-0.4-0.3-0.9-0.7-1.1h-5.9l-0.2-0.4c-0.1-0.1-0.6-0.4-2.1-0.4c-1.2,0-2.1-0.3-2.9-0.5c-0.7-0.2-1.3-0.4-2-0.4
				c-0.4,0-0.7,0.1-1.1,0.2c-1.1,0.3-2.5,0.4-3.9,0.5c-1.1,0.1-2.9,0.2-3.5,0.5v2.1l-8.7-1.6l-0.2-0.6c0,0,0-0.1,0-0.1
				c-2.7-0.5-7.9-1.6-13.3-2.6l-0.9-0.2l0.1-0.9c0.1-1.2-0.3-2.7-0.6-3.4c0,0,0,0,0,0c-0.1,0-0.4-0.1-1.8-0.1c-0.4,0-0.9,0-1.5,0
				c-0.6,0-1.2,0-1.9,0c-0.7,0-1,0-1.3,0.1l0.1,3l-1.2-1.6l-0.8,1.3l0-2.6c-0.1-0.3-0.1-0.6,0-0.9l-0.4-23.5l98,15v131.6l-4.6-0.3
				l-0.1,0c-1.6-0.4-2.9-0.8-4.8-0.8c-1.8,0-2.9,0.8-4.1,1.7c-1.2,0.8-2.3,1.6-3.9,1.6c-0.5,0-1,0.1-1.6,0.1l-0.2,0
				C300.6,192.9,299.9,193,299.1,193z M55.3,188.2c-0.3,0-0.5,0-0.8,0l-0.3,0c-0.3,0-0.6,0-0.9,0c-0.3,0-0.6,0-0.9,0l-0.6,0
				c-0.6,0-1.2,0-1.8,0c-2.5,0-4.3-0.3-4.8-1.8c-0.1-0.4-0.5-1.4-0.1-14.1h-4.5c-0.4,0-0.8,0-1.4-0.1c-0.6,0-1.3-0.1-2-0.1
				c-1.3,0-1.6,0.2-1.7,0.2c-1.4,1.4-3.8,1.4-6.4,1.4c-0.8,0-1.7-0.1-2.6-0.3c-1-0.1-2.2-0.3-3.3-0.3c-1,0-1.7,0.1-2.2,0.4
				c-0.6,0.3-1.3,0.5-1.9,0.5c-1.1,0-2-0.4-3.1-0.8c-1.3-0.5-3-1.2-5.3-1.2c-2.1,0-3.8,0.2-5,0.3l-0.1,0l-2.2-0.2l0-111.7L100.6,46
				v28l-7,1.7l0.1-1.4c0-0.2,0-0.7-0.2-1c0,0,0,0,0,0c-0.3,0-1,0.2-1.6,0.3C91,74,90,74.2,89,74.2c-0.6,0-1.2-0.1-1.7-0.3
				c-0.5-0.2-1-0.3-1.4-0.3c-0.4,0-0.8,0.1-1.2,0.2c-0.5,0.1-1,0.2-1.5,0.2c-0.2,0-1,0-1.4-0.6c-0.1-0.2-0.2-0.4-0.2-0.6
				c0,0-0.1,0-0.1,0c-0.8-0.1-2.2-0.2-4.9-0.2c-1.6,0-2.1,0.4-2.8,0.8c-0.7,0.5-1.4,1-3.1,1c-0.2,0-0.5,0-0.7,0c-0.3,0-0.6,0-0.9,0
				c-1.5,0-1.9,0.3-2.5,0.8c-0.4,0.3-0.8,0.6-1.4,0.9c-0.4,0.2-0.7,0.7-0.8,1.2h2.9v4.5h5.3v12.6h-0.2v9.7h-1.3v1.4l1.8,3.4
				l-1.5,66.9h-3v3.1h-6.5v3.1h-4.7v6.1l-0.9,0.1C55.9,188.2,55.6,188.2,55.3,188.2z M222.6,101.7l10.3,0.4v3.4l1.8,3.4l-1.5,66.9
				l-10.5,0.3L222.6,101.7z M215,108.8l1.8-3.4v-3.2l2.6-0.7v74l-2.9,0.4L215,108.8z M243.5,175.8l-1.5-66.9l1.8-3.4V102h16.1v3.4
				l1.8,3.4l-1.5,66.9H243.5z M189.5,175.8l-1.5-66.9l1.8-3.4V102h16.1v3.4l1.8,3.4l-1.5,66.9H189.5z M162.6,175.8l-1.5-66.9
				l1.8-3.4V102H179v3.4l1.8,3.4l-1.5,66.9H162.6z M135.6,175.8l-1.5-66.9l1.8-3.4V102H152v3.4l1.8,3.4l-1.5,66.9H135.6z
				 M108.6,175.8l-1.5-66.9l1.8-3.4V102H125v3.4l1.8,3.4l-1.5,66.9H108.6z M81.6,175.8l-1.5-66.9l1.8-3.4V102H98v3.4l1.8,3.4
				l-1.5,66.9H81.6z M103.5,20.6L219.5,1.4v68c0,0-4.7-0.3-4.7-0.3c-2.3,0-7.4-0.7-9.8-1.4c-2.4-0.7-3.3-0.9-5.2-0.9
				c-0.4,0-0.6,0.1-0.6,0.1c-0.1,0.1,0,0.3,0,0.3l0.3,1.2h-1.3c-2.4,0-6.6-0.1-7.6-0.6c-1-0.5-1.2-1.9-1.1-2.9h-9.7v3.1h-1
				c-0.4,0-0.5,0.1-0.8,0.9c-0.2,0.5-0.6,1.4-1.6,1.4c-0.2,0-0.4,0-0.5-0.1c0,0,0,0,0,0c-0.4,0-0.9,0.2-1.4,0.3
				c-0.6,0.2-1.2,0.4-1.7,0.4c-1,0-1.3-0.6-1.4-0.9c-0.1-0.3-0.2-0.7,0-1.3c0.1-0.3,0.3-0.7,0.5-0.9c-0.4-0.6-0.4-1.5-0.4-2.8l0-0.7
				c0-0.6-0.1-0.8-0.1-0.8l-1.3,0.4l0.1-1.3v-3.2l-42.4,9.6l-1.1,0.2l-0.2-1.1c-0.1-0.9-0.4-2.2-0.6-3.1c0-0.1,0-0.2,0-0.2
				c0,0,0,0-0.1,0c-0.2,0-0.5,0-0.8,0c-0.6,0-4.4,1.1-6.9,1.9c-3.1,0.9-4.6,1.4-5.3,1.5c0,0.1,0,0.2,0,0.2c0,0.3,0.3,1.6,0.6,2.7
				l0.3,1l-1.3,0.3l-8.6,1.4L103.5,20.6z"/>
			<g>
				<rect x="2.9" y="266.4" class="st0" width="13.1" height="39.6"/>
				<path class="st0" d="M39.3,307.1c-12.2,0-22.2-9.4-22.2-21c0-11.5,10-20.9,22.2-20.9c5.4,0,10.7,1.8,14.6,5.1l0.8,0.6l-7.8,9.9
					l-0.8-0.8c-1.6-1.6-4.3-2.7-6.7-2.7c-5.1,0-9.1,3.9-9.1,8.9s4,8.9,9.1,8.9c2.1,0,4-1,5.3-2.8h-6.9l3.9-10.3h17.8v3.7
					C59.3,297.9,50.7,307.1,39.3,307.1z"/>
				<path class="st0" d="M84.1,305.9l-1.6-4.7H70.4l-1.7,4.7H55.1l15.4-39.6h12.2l15.5,39.6H84.1z M79.1,291l-2.5-7.5l-2.6,7.5H79.1
					z"/>
				<path class="st0" d="M117.1,305.9l-6-9.7v9.7h-13v-39.6h13c7.7,0,18,1.5,18,14.3c0,4.3-2.3,8-6.4,10.5l9.9,14.8H117.1z
					 M111.8,284.6c4,0,4.5-2.1,4.5-3.7c0-1.6-0.5-3.2-4.5-3.2h-0.7v6.9H111.8z"/>
				<path class="st0" d="M141.7,306.5c-3.2,0-7.6-0.5-10.3-1.8l-0.6-0.3v-11.4l1.4,0.7c2.9,1.4,5.8,2.1,8.7,2.1c1.8,0,3-0.7,3-1.3
					c0-1-2.5-2.9-5.4-5c-6.4-4.8-8.4-7.7-8.4-12.5c0-5.7,4.8-11.5,15.4-11.5c4,0,7,0.5,9.3,1.6l0.6,0.3l-0.1,11.4l-1.5-0.8
					c-1.9-1.1-4.7-1.7-7.4-1.7c-1.2,0-2.5,0.3-2.5,1c0,0.9,2.2,2.6,4.4,4.3c6.1,4.9,8.9,7.8,8.9,13.1
					C157.4,302.8,149.5,306.5,141.7,306.5L141.7,306.5z"/>
				<path class="st0" d="M169,306.5c-3.2,0-7.6-0.5-10.3-1.8l-0.6-0.3v-11.4l1.4,0.7c2.9,1.4,5.8,2.1,8.7,2.1c1.8,0,3-0.7,3-1.3
					c0-1-2.5-2.9-5.4-5c-6.4-4.8-8.4-7.7-8.4-12.5c0-5.7,4.8-11.5,15.4-11.5c4,0,7,0.5,9.3,1.6l0.6,0.3l-0.1,11.4l-1.5-0.8
					c-1.9-1.1-4.7-1.7-7.4-1.7c-1.2,0-2.5,0.3-2.5,1c0,0.9,2.2,2.6,4.4,4.3c6.1,4.9,8.9,7.8,8.9,13.1
					C184.7,302.8,176.8,306.5,169,306.5L169,306.5z"/>
			</g>
			<g>
				<path class="st0" d="M1.6,350.5l-1.2-2.6l0.4-0.5c1.9-2.5,6.7-8.6,10.1-12.8l2.9-3.6c2.5-3.2,3.4-4.9,3.4-6.8
					c0-2-1.8-3.3-4.6-3.3c-2.4,0-4.7,0.9-7.1,2.7l-1.6,1.2l0.1-12.9l0.6-0.3c3.6-1.5,7.5-1.7,9.5-1.7c9.2,0,15.7,5.7,15.7,13.8
					c0,5.1-2.8,8.5-5.9,12.4l-0.5,0.6c-0.8,1-2,2.3-3.2,3.7h12.5l-4.2,10.3H1.6z"/>
				<path class="st0" d="M48.7,351.7c-10.5,0-17-7.5-17-19.6v-2.6c0-12.2,6.5-19.7,17-19.7s17,7.6,17,19.7v2.6
					C65.7,344.2,59.2,351.7,48.7,351.7z M48.7,320.6c-3.1,0-4.8,3.3-4.8,9.1v2.6c0,5.8,1.8,9.1,4.8,9.1c4.2,0,4.8-5.7,4.8-9.1v-2.6
					C53.5,326.3,52.9,320.6,48.7,320.6z"/>
				<path class="st0" d="M65.1,350.5l-1.2-2.6l0.4-0.5c1.9-2.5,6.8-8.6,10.1-12.9l2.8-3.6c2.5-3.2,3.4-4.9,3.4-6.8
					c0-2-1.8-3.3-4.6-3.3c-2.4,0-4.7,0.9-7.1,2.7l-1.6,1.2l0.1-12.9l0.6-0.3c3.6-1.5,7.5-1.7,9.5-1.7c9.2,0,15.7,5.7,15.7,13.8
					c0,5.1-2.8,8.5-5.9,12.4l-0.5,0.6c-0.8,1-2,2.3-3.2,3.7H96l-4.2,10.3H65.1z"/>
				<path class="st0" d="M112.8,350.5v-5.6H95.9l-1.4-3.1l20-30.8H125v23.9h4.8l-2.6,10H125v5.6H112.8z M112.8,334.9v-6l-3.8,6
					H112.8z"/>
			</g>
			<g>
				<rect x="3.7" y="220.7" class="st0" width="13.1" height="39.6"/>
				<polygon class="st0" points="19.3,260.2 19.3,220.7 44.6,220.7 44.6,232.5 32.3,232.5 32.3,235.1 43.3,235.1 43.3,245.4 
					32.3,245.4 32.3,248.3 45,248.3 45,260.2 				"/>
				<polygon class="st0" points="47,260.2 47,220.7 72.4,220.7 72.4,232.5 60.1,232.5 60.1,235.1 71,235.1 71,245.4 60.1,245.4 
					60.1,248.3 72.8,248.3 72.8,260.2 				"/>
				<polygon class="st0" points="74.8,260.2 74.8,220.7 100.2,220.7 100.2,232.5 87.9,232.5 87.9,235.1 98.8,235.1 98.8,245.4 
					87.9,245.4 87.9,248.3 100.6,248.3 100.6,260.2 				"/>
			</g>
			<g>
				<path class="st0" d="M229.8,323.9l-1.1-2.9H222l-1.1,2.9h-7.2l8.7-21.7h6.2l8.7,21.7H229.8z M226.6,315.2l-1.2-3.4l-1.3,3.4
					H226.6z"/>
				<polygon class="st0" points="237.6,323.9 237.6,308.4 233.7,308.4 233.7,302.2 248.4,302.2 248.4,308.4 244.5,308.4 
					244.5,323.9 				"/>
				<polygon class="st0" points="259.5,323.9 259.5,315.5 254.8,315.5 254.8,323.9 247.9,323.9 247.9,302.2 254.8,302.2 
					254.8,309.2 259.5,309.2 259.5,302.2 266.4,302.2 266.4,323.9 				"/>
				<polygon class="st0" points="267,323.9 267,302.2 280.8,302.2 280.8,308.3 273.9,308.3 273.9,309.9 280.1,309.9 280.1,315.7 
					273.9,315.7 273.9,317.7 281,317.7 281,323.9 				"/>
				<polygon class="st0" points="295.6,323.9 288.3,314.1 288.3,323.9 281.4,323.9 281.4,302.2 287.6,302.2 294.9,311.9 
					294.9,302.2 301.8,302.2 301.8,323.9 				"/>
				<path class="st0" d="M308.1,324.2c-1.6,0-4.1-0.3-5.3-0.8l-0.6-0.2l0-6.2l1.4,0.6c1,0.4,2.8,0.9,4.6,0.9c1.1,0,1.7-0.4,1.7-0.7
					c0-0.5-1.9-1.9-3-2.6c-3.7-2.6-5-4.3-5-7c0-2.9,2.2-6.3,8.5-6.3c1.7,0,3.4,0.2,4.5,0.7l0.7,0.2l0,6.2l-1.4-0.6
					c-0.9-0.4-2.3-0.7-3.5-0.7c-0.7,0-1.6,0.1-1.6,0.5c0,0.5,1.6,1.6,2.7,2.4c3,2.2,5.2,4,5.2,7.1
					C316.8,321.5,313.2,324.2,308.1,324.2z"/>
				<path class="st0" d="M227,351.8c-6.9,0-12.3-5.1-12.3-11.5c0-6.4,5.4-11.5,12.3-11.5c3.1,0,6.2,1.1,8.4,3l0.8,0.7l-4.5,4.9
					l-0.7-0.7c-1-1-2.4-1.5-3.9-1.5c-3,0-5.4,2.3-5.4,5.2c0,2.9,2.4,5.2,5.4,5.2c1.4,0,2.7-0.7,3.6-1.8h-4.9l2.5-5.8h10.3v2.3
					C238.3,346.7,233.3,351.8,227,351.8z"/>
				<path class="st0" d="M248.2,351.1l-3.2-4.4v4.4h-6.9v-21.7h6.7c6.4,0,9.9,2.7,9.9,7.7c0,2.6-1.4,4.8-4,6.2l5.8,7.8H248.2z
					 M245.3,339.1c0.8,0,2.7-0.2,2.7-1.9c0-0.5,0-1.6-2.7-1.6H245v3.5H245.3z"/>
				<polygon class="st0" points="255.3,351.1 255.3,329.4 269.1,329.4 269.1,335.6 262.1,335.6 262.1,337.2 268.4,337.2 268.4,343 
					262.1,343 262.1,345 269.3,345 269.3,351.1 				"/>
				<polygon class="st0" points="269.7,351.1 269.7,329.4 283.5,329.4 283.5,335.6 276.5,335.6 276.5,337.2 282.8,337.2 282.8,343 
					276.5,343 276.5,345 283.7,345 283.7,351.1 				"/>
				<path class="st0" d="M295.2,351.7c-6.8,0-12.2-5-12.2-11.5c0-6.4,5.3-11.4,12.2-11.4c1.8,0,3.4,0.3,4.8,1l0.6,0.3v6.9l-1.5-0.9
					c-1-0.6-2.2-0.9-3.5-0.9c-3.1,0-5.6,2.3-5.6,5c0,2.8,2.5,5.2,5.6,5.2c1.4,0,2.6-0.3,3.5-0.9l1.5-0.9v7l-0.6,0.3
					C298.6,351.4,297,351.7,295.2,351.7z"/>
				<polygon class="st0" points="300.8,351.1 300.8,329.4 314.7,329.4 314.7,335.6 307.7,335.6 307.7,337.2 313.9,337.2 313.9,343 
					307.7,343 307.7,345 314.9,345 314.9,351.1 				"/>
			</g>
			<g>
				<path class="st0" d="M219.3,287.4c-1,0-1.8-0.1-2.6-0.5l-0.6-0.3v-5l1.4,0.7c0.5,0.2,0.9,0.3,1.4,0.3c0.6,0,1.4,0,1.4-2.9v-13.9
					h5.1v14.7C225.4,285.3,223.5,287.4,219.3,287.4L219.3,287.4z"/>
				<path class="st0" d="M232.5,287.4c-3.9,0-6.5-2.6-6.5-6.5v-10.7h4.9v9.8c0,1.9,0.9,2.8,2.7,2.8c1.1,0,2.8-0.8,2.8-2.6v-10.1h4.9
					V287h-4.8v-0.7C235.3,287,233.9,287.4,232.5,287.4z"/>
				<rect x="241.8" y="265" class="st0" width="4.9" height="22"/>
				<polygon class="st0" points="250.6,292.7 253.1,286.4 245.4,270.3 251,270.3 255.4,280.3 259.3,270.3 264.5,270.3 255.7,292.7 
									"/>
				<polygon class="st0" points="268.8,287 276.2,270.3 266.7,270.3 268.3,265.9 283.5,265.9 274.2,287 				"/>
				<rect x="280.5" y="275.5" class="st0" width="10.6" height="4.7"/>
				<polygon class="st0" points="294.3,287 294.3,273.5 290.4,277.3 290.4,270.8 295.5,265.9 299.2,265.9 299.2,287 				"/>
				<path class="st0" d="M300,287l-0.6-1.5l0.4-0.5c0.4-0.5,1.9-2.2,3.6-4.1c1.7-2,3.7-4.2,4.2-4.8c1.7-2,2.2-2.9,2.2-4.1
					c0-1.2-1.1-2.4-2.9-2.5c-1.4,0-2.6,0.5-3.9,1.5l-1.6,1.4V267l0.5-0.3c1.6-0.9,3.4-1.4,5.4-1.4c4.4,0,7.6,2.9,7.6,6.8
					c0,2.7-1.3,4.4-3.4,6.8c-0.5,0.6-2,2.2-3.4,3.8h8.2l-1.9,4.4H300z"/>
			</g>
			<path class="st0" d="M200.6,358.6c-1.1,0-2-0.9-2-2v-96.4c0-1.1,0.9-2,2-2s2,0.9,2,2v96.4C202.6,357.7,201.7,358.6,200.6,358.6z"
				/>
		</g>
		<g>
			<g>
				<g>
					<path class="st1" d="M160,12.3l-55.4,9.2v193.2l113.9-6.7V2.6L163,11.8L160,12.3z"/>
				</g>
				<g>
					<path class="st1" d="M4.5,186.5v14.5l95.1,6.9V47.2L4.5,61.4v22.9v3.1v71V186.5z"/>
				</g>
				<g>
					<polyline class="st1" points="319.7,97.5 319.7,100.6 319.7,100.6 319.7,111.6 319.7,111.6 319.7,123.1 319.7,208 223.7,202 
						223.7,44.9 319.7,59.6 319.7,97.5 319.7,97.5 					"/>
				</g>
			</g>
			<path class="st2" d="M319.7,189.3V176V59.6l-96-14.7l0.4,23c0,0-0.7-1,2.3-1c3,0,5.5-0.3,6,0.6c0.4,0.8,0.9,2.6,0.7,3.9
				c5.9,1.2,11.6,2.3,14,2.8c0,0.4,0.1,0.7,0.1,0.7l6.9,1.3v-1c0-1.6,5.5-1,8.1-1.7c2.6-0.7,3.8,0.7,6.3,0.7c2.4,0,2.9,0.8,2.9,0.8
				h5.6c1.6,0.7,1.5,3.1,1.5,3.1h-3.1v4.5h-5.3v10.6h0.3v9.7h1.3v2.7l-1.8,3.4l1.5,65.7h3v3.1h6.5v1.7c0.4,0.1,0.8,0.1,1.2,0.2
				c6.7,1.2,6.8,1.5,7.5,3.1c0.2,0.5,0.5,1.1,0.9,1.8c0.8,1.3,0.7,1.8,0.7,2.3c-0.1,1,0,1.5,2.4,3.2c1.8,1.3,3.5,1.9,5.4,1.9
				c0.8,0,1.5-0.1,2.3-0.2c0.6-0.1,1.2-0.2,1.8-0.2c1.3,0,2.3-0.7,3.4-1.5c1.3-0.9,2.7-1.9,4.7-1.9c2.1,0,3.4,0.4,5.1,0.8
				L319.7,189.3z M218.5,68.3V2.6L104.5,21.4l0,51.3l7.3-1.2l0,0l0.3-0.1c0,0-0.6-2.4-0.6-2.9c0-0.5-0.4-1.2,0.6-1.2
				c1,0,11.2-3.4,12.6-3.4s1.6-0.4,1.9,1c0.2,0.9,0.5,2.2,0.6,3.2l0.1,0l43.5-9.8v4.4c0,0,1.3-0.4,1.3,1.8c0,2.1-0.1,2.8,0.5,3.1
				c0.5,0.2-0.4,0.9-0.7,1.6c-0.1,0.2-0.1,0.4,0,0.6c0.4,0.9,2.9-0.7,3.9-0.3c1.1,0.4,0.5-2.2,2.6-2.2v-2.2c0,0-0.2-0.9,0.8-0.9
				c1,0,11,0,11,0s-0.4,2.5,0.5,3c0.9,0.5,7.2,0.5,7.2,0.5s-0.4-1.7,1.6-1.7c2.1,0,3.1,0.2,5.5,0.9c2.4,0.7,7.4,1.4,9.6,1.4
				L218.5,68.3z M99.6,73.3V47.2L4.5,61.4l0,109.9l1.2,0.1c1.2-0.1,3-0.3,5.1-0.3c2.5,0,4.2,0.7,5.6,1.2c1,0.4,1.9,0.7,2.7,0.7
				c0.5,0,1-0.1,1.5-0.4c0.7-0.4,1.5-0.5,2.7-0.5c1.1,0,2.3,0.2,3.4,0.3c0.9,0.1,1.8,0.3,2.5,0.3c2.4,0,4.6,0,5.7-1.2
				c0.2-0.2,0.8-0.5,2.3-0.5c0.7,0,1.4,0,2.1,0.1c0.5,0,1,0.1,1.3,0.1h6c-0.1,0.1-0.2,0.4-0.4,0.5c-0.1,0.1-0.1,0.2-0.1,0.3
				c-0.1,2.1-0.4,12.8,0,14c0.3,0.8,1.4,1.1,3.9,1.1c0.6,0,1.2,0,1.8,0c0.5,0,1,0,1.4,0c0.3,0,0.6,0,1,0c0.3,0,0.7,0,1.1,0
				c0.3,0,0.6,0,0.9,0V181h4.7v-3.1h6.5v-3.1h3l1.5-65.7l-1.8-3.4V103h1.3v-9.7h0.3V82.6h-5.3v-4.5h-3.1c0,0-0.1-2.4,1.5-3.1
				c1.6-0.7,1.5-2,5.2-1.7c3.6,0.3,2.7-1.7,6.5-1.7c3.9,0,5.1,0.3,5.9,0.3c0.8,0-0.7,1.1,0.8,1.1c1.4,0,2.5-0.9,4.6,0
				s5.6-1.2,6.4-0.3c0.5,0.6,0.6,1.3,0.6,1.8L99.6,73.3z M98.9,109.1l-1.8-3.4V103H82.9v2.7l-1.8,3.4l1.5,65.7h14.7L98.9,109.1z
				 M125.8,109.1l-1.8-3.4V103h-14.1v2.7l-1.8,3.4l1.5,65.7h14.7L125.8,109.1z M152.8,109.1l-1.8-3.4V103h-14.1v2.7l-1.8,3.4
				l1.5,65.7h14.7L152.8,109.1z M179.8,109.1l-1.8-3.4V103h-14.1v2.7l-1.8,3.4l1.5,65.7h14.7L179.8,109.1z M206.7,109.1l-1.8-3.4
				V103h-14.1v2.7l-1.8,3.4l1.5,65.7h14.7L206.7,109.1z M232.2,174.8l1.5-65.7l-1.8-3.4V103l-8.3-0.3l0.1,72.3L232.2,174.8z
				 M218.4,174.6v-71.8l-0.6,0.2v2.7l-1.8,3.4l1.5,65.7L218.4,174.6z M260.7,109.1l-1.8-3.4V103h-14.1v2.7l-1.8,3.4l1.5,65.7h14.7
				L260.7,109.1z"/>
			<g>
				<path class="st1" d="M3.9,267.4H15v37.6H3.9V267.4z"/>
				<path class="st1" d="M39.3,306.1c-11.8,0-21.2-9-21.2-20c0-11,9.4-19.9,21.2-19.9c5.4,0,10.5,2,13.9,4.8l-6.5,8.3
					c-1.7-1.7-4.5-3-7.4-3c-5.7,0-10.1,4.3-10.1,9.9s4.4,9.9,10.1,9.9c3.1,0,5.7-1.9,7.1-4.8h-7.2l3.1-8.3h16.1v2.7
					C58.3,297.5,49.9,306.1,39.3,306.1z"/>
				<path class="st1" d="M83.2,300.2H69.7l-1.7,4.7H56.6l14.6-37.6h10.8l14.7,37.6H84.8L83.2,300.2z M80.5,292l-3.9-11.5l-4,11.5
					H80.5z"/>
				<path class="st1" d="M110.4,293.2h-0.3v11.7h-11v-37.6h12c7.9,0,17,1.6,17,13.3c0,4.8-3,8.1-6.8,10.1l9.5,14.1h-13L110.4,293.2z
					 M110.1,276.7v8.9h1.7c3.3,0,5.5-1.4,5.5-4.7c0-3.2-2.3-4.2-5.5-4.2H110.1z"/>
				<path class="st1" d="M154.4,277.1c-2.1-1.2-5.1-1.9-7.9-1.9c-2.2,0-3.5,0.8-3.5,2c0,1.4,1.8,2.8,4.8,5.1c6.2,5,8.6,7.6,8.6,12.3
					c0,7.4-7.2,10.8-14.7,10.9c-3.6,0-7.6-0.6-9.9-1.7v-9.2c2.7,1.3,5.8,2.2,9.1,2.2c2.3,0,4-1,4-2.3c0-1.5-2.3-3.2-5.9-5.8
					c-6.3-4.7-7.9-7.3-7.9-11.7c0-5.4,4.7-10.5,14.4-10.5c2.8,0,6.2,0.3,8.9,1.5L154.4,277.1z"/>
				<path class="st1" d="M181.7,277.1c-2.1-1.2-5.1-1.9-7.9-1.9c-2.2,0-3.5,0.8-3.5,2c0,1.4,1.8,2.8,4.8,5.1c6.2,5,8.6,7.6,8.6,12.3
					c0,7.4-7.2,10.8-14.7,10.9c-3.6,0-7.6-0.6-9.9-1.7v-9.2c2.7,1.3,5.8,2.2,9.1,2.2c2.3,0,4-1,4-2.3c0-1.5-2.3-3.2-5.9-5.8
					c-6.3-4.7-7.9-7.3-7.9-11.7c0-5.4,4.7-10.5,14.4-10.5c2.8,0,6.2,0.3,8.9,1.5L181.7,277.1z"/>
			</g>
			<g>
				<path class="st3" d="M27.6,349.5H2.2L1.5,348c2.6-3.4,10.7-13.6,12.9-16.5c2.7-3.4,3.6-5.2,3.6-7.4c0-2.3-2-4.3-5.5-4.3
					c-2.3,0-4.9,0.8-7.7,2.9l0.1-10.3c2.9-1.2,6.2-1.7,9.1-1.7c9.1,0,14.7,5.4,14.7,12.8c0,4.9-2.8,8.1-6.2,12.3
					c-1.1,1.4-2.9,3.4-4.6,5.3H31L27.6,349.5z"/>
				<path class="st3" d="M64.7,329.5v2.6c0,12.3-6.8,18.6-16,18.6c-9.2,0-16-6.3-16-18.6v-2.6c0-12.4,6.8-18.7,16-18.7
					C58,310.8,64.7,317.1,64.7,329.5z M54.5,329.7c0-6.9-2.3-10.1-5.8-10.1c-3.4,0-5.8,3.2-5.8,10.1v2.6c0,6.9,2.5,10.1,5.8,10.1
					c3.4,0,5.8-3.2,5.8-10.1V329.7z"/>
				<path class="st3" d="M91.1,349.5H65.7L65,348c2.6-3.4,10.7-13.6,12.9-16.5c2.7-3.4,3.6-5.2,3.6-7.4c0-2.3-2-4.3-5.5-4.3
					c-2.3,0-4.9,0.8-7.7,2.9l0.1-10.3c2.9-1.2,6.2-1.7,9.1-1.7c9.1,0,14.7,5.4,14.7,12.8c0,4.9-2.8,8.1-6.2,12.3
					c-1.1,1.4-2.9,3.4-4.6,5.3h13.2L91.1,349.5z"/>
				<path class="st3" d="M124,343.9v5.6h-10.2v-5.6H96.5l-0.9-2L115,312h9v23.9h4.5l-2.1,8H124z M113.8,335.9v-10.4l-6.6,10.4H113.8
					z"/>
			</g>
			<g>
				<path class="st1" d="M4.7,221.7h11.1v37.6H4.7V221.7z"/>
				<path class="st1" d="M20.3,221.7h23.4v9.9H31.3v4.6h10.9v8.3H31.3v5H44v9.9H20.3V221.7z"/>
				<path class="st1" d="M48,221.7h23.4v9.9H59.1v4.6H70v8.3H59.1v5h12.7v9.9H48V221.7z"/>
				<path class="st1" d="M75.8,221.7h23.4v9.9H86.9v4.6h10.9v8.3H86.9v5h12.7v9.9H75.8V221.7z"/>
			</g>
			<g>
				<path class="st3" d="M229.4,319.9h-8.2l-1.1,2.9h-5.1l7.9-19.7h4.8l7.9,19.7h-5.2L229.4,319.9z M228.1,316.2l-2.7-7.2l-2.7,7.2
					H228.1z"/>
				<path class="st3" d="M238.6,307.4h-3.9v-4.2h12.6v4.2h-3.9v15.5h-4.9V307.4z"/>
				<path class="st3" d="M248.9,303.2h4.9v7.1h6.8v-7.1h4.9v19.7h-4.9v-8.4h-6.8v8.4h-4.9V303.2z"/>
				<path class="st3" d="M268,303.2h11.8v4.1h-6.9v3.6h6.2v3.8h-6.2v4h7.2v4.1h-12V303.2z"/>
				<path class="st3" d="M287.3,311.1v11.8h-4.9v-19.7h4.7l8.9,11.8v-11.8h4.9v19.7h-4.7L287.3,311.1z"/>
				<path class="st3" d="M314.4,307.4c-1-0.5-2.6-0.8-3.9-0.8c-1.8,0-2.6,0.6-2.6,1.5c0,0.9,1,1.7,3.1,3.2c3.1,2.3,4.7,3.8,4.7,6.3
					c0,3.5-3.4,5.6-7.7,5.6c-1.6,0-3.9-0.3-5-0.7l0-4.1c1.2,0.5,3.1,1,4.9,1c1.7,0,2.7-0.8,2.7-1.7c0-1-1.1-1.8-3.4-3.4
					c-3.5-2.4-4.5-3.9-4.5-6.2c0-2.7,2.3-5.3,7.5-5.3c1.4,0,3,0.2,4.2,0.6L314.4,307.4z"/>
				<path class="st3" d="M227,350.8c-6.4,0-11.3-4.7-11.3-10.5c0-5.8,5-10.5,11.3-10.5c3,0,5.8,1.1,7.7,2.8l-3.1,3.4
					c-1.2-1.2-2.8-1.8-4.6-1.8c-3.6,0-6.4,2.7-6.4,6.2c0,3.5,2.8,6.2,6.4,6.2c2.5,0,4.5-1.6,5.2-3.8h-5l1.6-3.8h8.6v1.3
					C237.3,346.2,232.8,350.8,227,350.8z"/>
				<path class="st3" d="M244.1,343.8L244.1,343.8l-0.1,6.3h-4.9v-19.7h5.7c4.6,0,8.9,1.5,8.9,6.7c0,2.9-2,4.8-4.5,5.8l5.4,7.2h-5.8
					L244.1,343.8z M244,334.6v5.5h1.3c2.2,0,3.7-1.1,3.7-2.9c0-1.7-1.3-2.6-3.7-2.6H244z"/>
				<path class="st3" d="M256.3,330.4h11.8v4.1h-6.9v3.6h6.2v3.8h-6.2v4h7.2v4.1h-12V330.4z"/>
				<path class="st3" d="M270.7,330.4h11.8v4.1h-6.9v3.6h6.2v3.8h-6.2v4h7.2v4.1h-12V330.4z"/>
				<path class="st3" d="M299.6,335.2c-1.1-0.7-2.6-1.1-4.1-1.1c-3.7,0-6.6,2.8-6.6,6c0,3.4,2.9,6.2,6.6,6.2c1.5,0,2.9-0.3,4.1-1.1
					v4.5c-1.3,0.6-2.8,0.9-4.4,0.9c-6.5,0-11.2-4.7-11.2-10.5c0-5.8,4.7-10.4,11.2-10.4c1.6,0,3.1,0.3,4.4,0.9V335.2z"/>
				<path class="st3" d="M301.8,330.4h11.8v4.1h-6.9v3.6h6.2v3.8h-6.2v4h7.2v4.1h-12V330.4z"/>
			</g>
			<g>
				<path class="st3" d="M217.1,283.2c0.6,0.3,1.2,0.4,1.8,0.4c1.3,0,2.4-0.6,2.4-3.9v-12.9h3.1v13.7c0,4.1-1.4,5.8-5.1,5.8
					c-0.8,0-1.5-0.1-2.2-0.4V283.2z"/>
				<path class="st3" d="M237.5,284.3c-1,1.1-2.8,2.1-5,2.1c-3.3,0-5.5-2.1-5.5-5.5v-9.7h2.9v8.8c0,2.9,1.8,3.8,3.7,3.8
					c1.7,0,3.8-1.2,3.8-3.6v-9.1h2.9V286h-2.8V284.3z"/>
				<path class="st3" d="M245.8,286h-2.9v-20h2.9V286z"/>
				<path class="st3" d="M255,291.7h-3l2.1-5.4l-7.1-15h3.3l5.2,11.6l4.5-11.6h3L255,291.7z"/>
				<path class="st3" d="M273.6,286h-3.2l7.5-16.8h-9.6l0.9-2.4h13L273.6,286z"/>
				<path class="st3" d="M290.1,279.2h-8.6v-2.7h8.6V279.2z"/>
				<path class="st3" d="M298.2,286h-2.9v-14.9l-3.8,3.8v-3.6l4.5-4.4h2.3V286z"/>
				<path class="st3" d="M313.5,286h-12.8l-0.1-0.3c0.9-1.1,6.8-7.7,7.7-8.8c1.7-2,2.4-3.2,2.4-4.7c0-1.8-1.5-3.4-3.9-3.5
					c-1.5,0-3,0.4-4.6,1.8v-2.9c1.5-0.9,3.1-1.3,4.8-1.3c3.9,0,6.6,2.6,6.6,5.8c0,2.4-1.1,3.8-3.2,6.2c-0.7,0.8-3.1,3.5-5,5.4h9
					L313.5,286z"/>
			</g>
			<path class="st3" d="M200.6,357.6c-0.6,0-1-0.4-1-1v-96.4c0-0.6,0.4-1,1-1s1,0.4,1,1v96.4C201.6,357.1,201.1,357.6,200.6,357.6z"
				/>
		</g>
	</g>
</g>
<g>
</g>
<g>
</g>
<g>
</g>
<g>
</g>
<g>
</g>
<g>
</g>
</svg>
